<svg width="64" height="64" viewBox="0 0 64 64" fill="none" xmlns="http://www.w3.org/2000/svg">
	<path fill-rule="evenodd" clip-rule="evenodd"
		d="M37.5432 22.0998C36.2412 22.8306 35.1505 23.9478 34.4089 25.325C34.1681 25.7722 34.3069 26.3498 34.7173 26.6121C35.128 26.8746 35.6581 26.7239 35.899 26.2765C36.9722 24.2834 38.955 23.043 41.0765 23.043C44.3838 23.043 47.0742 25.9745 47.0742 29.5776C47.0742 33.1806 44.3838 36.1121 41.0765 36.1121H21.832C19.1268 36.1121 16.9259 33.7144 16.9259 30.7672C16.9259 27.8201 19.1268 25.4223 21.832 25.4223C22.3089 25.4223 22.6953 25.0014 22.6953 24.4818C22.6953 23.613 22.854 22.7601 23.16 21.9582C23.7178 20.4963 24.7263 19.295 25.9528 18.4614C27.29 17.5526 28.8504 17.0981 30.4231 17.0981C31.8453 17.0981 33.262 17.4672 34.5127 18.2104C35.6795 18.9039 36.6798 19.9132 37.3386 21.1771C37.4473 21.3856 37.5461 21.6001 37.6345 21.8198L37.7096 22.0065L37.5432 22.0998Z"
		fill="#C6DEFF" />
	<path fill-rule="evenodd" clip-rule="evenodd"
		d="M43.5812 47.8425C43.5812 48.482 43.1057 49 42.5187 49H21.4811C20.894 49 20.4188 48.4819 20.4188 47.8425C20.4188 47.2039 20.894 46.6849 21.4811 46.6849H42.5187C43.1057 46.6849 43.5812 47.204 43.5812 47.8425ZM43.5812 42.4477C43.5812 43.0873 43.1057 43.6053 42.5187 43.6053H21.4811C20.894 43.6053 20.4188 43.0873 20.4188 42.4477C20.4188 41.8082 20.894 41.2902 21.4811 41.2902H42.5187C43.1057 41.2902 43.5812 41.8082 43.5812 42.4477ZM41.0765 35.8951H21.832C19.2367 35.8951 17.1251 33.5946 17.1251 30.7672C17.1251 27.9398 19.2367 25.6393 21.832 25.6393C22.419 25.6393 22.8945 25.1209 22.8945 24.4817C22.8945 20.5299 26.2719 17.3152 30.423 17.3152C33.579 17.3152 36.3484 19.1635 37.4519 21.9069C36.1344 22.6465 35.0083 23.7832 34.2371 25.2152C33.9405 25.7663 34.1106 26.4758 34.6164 26.7994C35.1223 27.1225 35.7732 26.9379 36.0709 26.3864C37.1087 24.4579 39.0273 23.2601 41.0765 23.2601C44.2739 23.2601 46.875 26.0943 46.875 29.5776C46.875 33.0608 44.2738 35.8951 41.0765 35.8951ZM41.0765 20.9449C40.5274 20.9449 39.9849 21.008 39.4567 21.1291C38.0568 17.4728 34.4824 15 30.423 15C25.4709 15 21.3777 18.6812 20.8311 23.404C17.5367 23.933 15 27.0334 15 30.7672C15 34.8717 18.0645 38.2102 21.8319 38.2102H41.0765C45.4453 38.2102 49 34.3375 49 29.5775C49.0001 24.8176 45.4453 20.9449 41.0765 20.9449Z"
		fill="white" />
</svg>