<svg width="512" height="342" viewBox="0 0 512 342" fill="none" xmlns="http://www.w3.org/2000/svg">
	<path
		d="M412.907 129.08C398.4 55.693 333.653 0.333008 256 0.333008C194.347 0.333008 141.013 35.32 114.24 86.413C50.027 93.24 0 147.64 0 213.667C0 284.387 57.28 341.667 128 341.667H405.333C464.213 341.667 512 293.88 512 235C512 178.68 468.267 133.027 412.907 129.08ZM405.333 299H128C80.96 299 42.667 260.707 42.667 213.667C42.667 166.627 80.96 128.334 128 128.334C175.04 128.334 213.333 166.627 213.333 213.667H256C256 154.787 216.213 105.4 162.133 90.467C183.573 61.773 217.6 43 256 43C320.747 43 373.333 95.587 373.333 160.333V171H405.333C440.64 171 469.333 199.693 469.333 235C469.333 270.307 440.64 299 405.333 299Z"
		fill="#fff" />
</svg>