<svg width="448" height="449" viewBox="0 0 448 449" fill="none" xmlns="http://www.w3.org/2000/svg">
	<path
		d="M432 268.16C427.296 268.188 422.635 267.266 418.297 265.448C413.958 263.631 410.031 260.956 406.752 257.584C394.41 246.279 378.281 240.008 361.544 240.008C344.807 240.008 328.678 246.279 316.336 257.584L315.68 258.096C292.224 166.784 177.872 13.168 172.8 6.39998C171.245 4.51008 169.291 2.98797 167.078 1.94297C164.864 0.897976 162.447 0.356018 160 0.356018C157.553 0.356018 155.136 0.897976 152.922 1.94297C150.709 2.98797 148.755 4.51008 147.2 6.39998C132.128 26.56 1.09762e-06 205.52 1.09762e-06 288C-0.00339263 316.978 7.86303 345.413 22.7594 370.268C37.6558 395.124 59.0228 415.468 84.5793 429.128C110.136 442.787 138.922 449.25 167.865 447.825C196.808 446.401 224.82 437.143 248.912 421.04C252.438 418.678 254.882 415.013 255.706 410.85C256.529 406.686 255.665 402.366 253.304 398.84C250.942 395.314 247.277 392.87 243.114 392.046C238.95 391.223 234.63 392.086 231.104 394.448C211.83 407.324 189.421 414.725 166.269 415.86C143.117 416.996 120.092 411.823 99.6503 400.894C79.2088 389.965 62.1186 373.691 50.204 353.808C38.2894 333.925 31.9975 311.18 32 288C32 233.008 115.072 105.76 160 43.2C191.024 86.656 268.8 200.288 285.008 267.6C277.834 266.156 271.223 262.692 265.952 257.616C253.622 246.307 237.499 240.033 220.768 240.033C204.037 240.033 187.914 246.307 175.584 257.616C172.315 260.979 168.401 263.648 164.077 265.462C159.752 267.277 155.106 268.2 150.416 268.176C146.173 268.176 142.103 269.862 139.102 272.862C136.102 275.863 134.416 279.933 134.416 284.176C134.416 288.419 136.102 292.489 139.102 295.49C142.103 298.49 146.173 300.176 150.416 300.176C167.173 300.326 183.346 294.024 195.584 282.576C198.869 279.23 202.789 276.573 207.113 274.758C211.437 272.944 216.079 272.01 220.768 272.01C225.457 272.01 230.099 272.944 234.423 274.758C238.747 276.573 242.667 279.23 245.952 282.576C258.291 293.88 274.418 300.151 291.152 300.151C307.886 300.151 324.013 293.88 336.352 282.576C339.647 279.227 343.576 276.567 347.909 274.751C352.242 272.936 356.894 272.001 361.592 272.001C366.29 272.001 370.942 272.936 375.275 274.751C379.608 276.567 383.537 279.227 386.832 282.576C399.081 294.004 415.248 300.298 432 300.16C436.243 300.16 440.313 298.474 443.314 295.474C446.314 292.473 448 288.403 448 284.16C448 279.917 446.314 275.847 443.314 272.846C440.313 269.846 436.243 268.16 432 268.16Z"
		fill="#fff" />
	<path
		d="M432 334.08C427.296 334.108 422.635 333.186 418.297 331.368C413.958 329.551 410.031 326.876 406.752 323.504C394.41 312.199 378.281 305.928 361.544 305.928C344.807 305.928 328.678 312.199 316.336 323.504C313.046 326.854 309.122 329.514 304.792 331.33C300.463 333.147 295.815 334.082 291.12 334.082C286.425 334.082 281.777 333.147 277.448 331.33C273.118 329.514 269.194 326.854 265.904 323.504C253.574 312.195 237.451 305.921 220.72 305.921C203.989 305.921 187.866 312.195 175.536 323.504C172.267 326.867 168.353 329.536 164.029 331.35C159.704 333.165 155.058 334.088 150.368 334.064C146.125 334.064 142.055 335.75 139.054 338.75C136.054 341.751 134.368 345.821 134.368 350.064C134.368 354.307 136.054 358.377 139.054 361.378C142.055 364.378 146.125 366.064 150.368 366.064C167.125 366.214 183.298 359.912 195.536 348.464C198.821 345.118 202.741 342.461 207.065 340.647C211.389 338.832 216.031 337.898 220.72 337.898C225.409 337.898 230.051 338.832 234.375 340.647C238.699 342.461 242.619 345.118 245.904 348.464C258.243 359.768 274.37 366.039 291.104 366.039C307.838 366.039 323.965 359.768 336.304 348.464C339.599 345.115 343.528 342.455 347.861 340.639C352.194 338.824 356.846 337.889 361.544 337.889C366.242 337.889 370.894 338.824 375.227 340.639C379.56 342.455 383.489 345.115 386.784 348.464C399.041 359.915 415.227 366.221 432 366.08C436.243 366.08 440.313 364.394 443.314 361.394C446.314 358.393 448 354.323 448 350.08C448 345.837 446.314 341.767 443.314 338.766C440.313 335.766 436.243 334.08 432 334.08ZM376 208C395.096 208 413.409 200.414 426.912 186.912C440.414 173.409 448 155.096 448 136C448 101.392 398.608 35.2 388.704 22.272C387.147 20.4182 385.202 18.9276 383.008 17.905C380.813 16.8824 378.421 16.3525 376 16.3525C373.579 16.3525 371.187 16.8824 368.992 17.905C366.798 18.9276 364.853 20.4182 363.296 22.272C353.392 35.2 304 101.392 304 136C304 155.096 311.586 173.409 325.088 186.912C338.591 200.414 356.904 208 376 208ZM376 59.2C395.456 86.944 416 121.6 416 136C416 146.609 411.786 156.783 404.284 164.284C396.783 171.786 386.609 176 376 176C365.391 176 355.217 171.786 347.716 164.284C340.214 156.783 336 146.609 336 136C336 121.6 356.544 86.944 376 59.2Z"
		fill="#fff" />
</svg>