<svg width="470" height="470" viewBox="0 0 470 470" fill="none" xmlns="http://www.w3.org/2000/svg">
	<path fill-rule="evenodd" clip-rule="evenodd"
		d="M149.667 341.667C155.325 341.667 160.751 343.914 164.752 347.915C168.752 351.916 171 357.342 171 363V405.667C171 411.325 168.752 416.751 164.752 420.752C160.751 424.752 155.325 427 149.667 427C144.009 427 138.582 424.752 134.582 420.752C130.581 416.751 128.333 411.325 128.333 405.667V363C128.333 357.342 130.581 351.916 134.582 347.915C138.582 343.914 144.009 341.667 149.667 341.667ZM149.667 213.667C155.325 213.667 160.751 215.914 164.752 219.915C168.752 223.916 171 229.342 171 235V277.667C171 283.325 168.752 288.751 164.752 292.752C160.751 296.752 155.325 299 149.667 299C144.009 299 138.582 296.752 134.582 292.752C130.581 288.751 128.333 283.325 128.333 277.667V235C128.333 229.342 130.581 223.916 134.582 219.915C138.582 215.914 144.009 213.667 149.667 213.667ZM320.333 341.667C325.991 341.667 331.418 343.914 335.418 347.915C339.419 351.916 341.667 357.342 341.667 363V405.667C341.667 411.325 339.419 416.751 335.418 420.752C331.418 424.752 325.991 427 320.333 427C314.675 427 309.249 424.752 305.248 420.752C301.248 416.751 299 411.325 299 405.667V363C299 357.342 301.248 351.916 305.248 347.915C309.249 343.914 314.675 341.667 320.333 341.667ZM320.333 213.667C325.991 213.667 331.418 215.914 335.418 219.915C339.419 223.916 341.667 229.342 341.667 235V277.667C341.667 283.325 339.419 288.751 335.418 292.752C331.418 296.752 325.991 299 320.333 299C314.675 299 309.249 296.752 305.248 292.752C301.248 288.751 299 283.325 299 277.667V235C299 229.342 301.248 223.916 305.248 219.915C309.249 215.914 314.675 213.667 320.333 213.667ZM235 384.333C240.658 384.333 246.084 386.581 250.085 390.582C254.086 394.583 256.333 400.009 256.333 405.667V448.333C256.333 453.991 254.086 459.418 250.085 463.418C246.084 467.419 240.658 469.667 235 469.667C229.342 469.667 223.916 467.419 219.915 463.418C215.914 459.418 213.667 453.991 213.667 448.333V405.667C213.667 400.009 215.914 394.583 219.915 390.582C223.916 386.581 229.342 384.333 235 384.333ZM235 256.333C240.658 256.333 246.084 258.581 250.085 262.582C254.086 266.583 256.333 272.009 256.333 277.667V320.333C256.333 325.991 254.086 331.418 250.085 335.418C246.084 339.419 240.658 341.667 235 341.667C229.342 341.667 223.916 339.419 219.915 335.418C215.914 331.418 213.667 325.991 213.667 320.333V277.667C213.667 272.009 215.914 266.583 219.915 262.582C223.916 258.581 229.342 256.333 235 256.333Z"
		fill="#fff" />
	<path fill-rule="evenodd" clip-rule="evenodd"
		d="M158.968 1.22934C186.746 -1.56827 214.793 2.20246 240.845 12.2373C266.842 22.2373 290.103 38.2468 308.728 58.9573C323.526 75.4256 335.052 94.5611 342.691 115.341H351.501C378.582 115.361 404.846 124.618 425.955 141.581C446.999 158.484 461.552 182.142 467.149 208.547C472.725 234.926 468.954 262.424 456.483 286.328C443.951 310.287 423.561 329.208 398.733 339.917C393.539 342.164 387.666 342.254 382.405 340.17C377.144 338.086 372.926 333.997 370.68 328.803C368.434 323.609 368.343 317.735 370.427 312.474C372.512 307.213 376.601 302.996 381.795 300.749C397.625 293.931 410.632 281.881 418.637 266.616C426.555 251.476 428.953 234.052 425.421 217.336C421.841 200.561 412.571 185.54 399.181 174.819C385.648 163.952 368.815 158.023 351.459 158.008H327.032C322.316 158.006 317.733 156.441 314 153.557C310.268 150.674 307.596 146.635 306.403 142.072C301.087 121.78 290.992 103.054 276.963 87.4587C262.844 71.7611 245.212 59.6262 225.507 52.0453C205.709 44.4267 184.4 41.5636 163.294 43.6869C142.188 45.8101 121.875 52.8601 103.992 64.2693C86.2498 75.6054 71.4572 90.9976 60.8347 109.176C50.281 127.232 44.2217 147.56 43.1673 168.448C42.1129 189.335 46.0943 210.17 54.776 229.197C63.5092 248.316 76.6728 265.077 93.176 278.093C97.6175 281.601 100.484 286.73 101.144 292.351C101.804 297.972 100.204 303.625 96.696 308.067C93.1881 312.508 88.0594 315.374 82.4383 316.034C76.8172 316.694 71.1642 315.095 66.7227 311.587C44.8997 294.366 27.4946 272.192 15.9493 246.904C4.43519 221.664 -0.846247 194.028 0.549677 166.321C1.9456 138.614 9.97802 111.648 23.9707 87.6933C38.0018 63.6612 57.5476 43.311 80.9947 28.3227C104.498 13.2951 131.21 4.01346 158.968 1.22934Z"
		fill="#fff" />
</svg>