<svg width="222" height="505" viewBox="0 0 222 505" fill="none" xmlns="http://www.w3.org/2000/svg">
	<path
		d="M157.24 292.24V46.24C157.24 40.1677 156.044 34.1548 153.72 28.5447C151.396 22.9346 147.99 17.8372 143.697 13.5434C139.403 9.2496 134.305 5.84359 128.695 3.51981C123.085 1.19603 117.072 0 111 0C98.7371 -4.58826e-08 86.9764 4.87115 78.3048 13.542C69.6332 22.2128 64.7611 33.9731 64.76 46.236V292.236C41.7421 302.787 23.0245 320.892 11.7142 343.546C0.403852 366.2 -2.81902 392.041 2.58053 416.78C7.98007 441.518 21.6773 463.666 41.3986 479.547C61.1199 495.428 85.6793 504.087 111 504.087C136.321 504.087 160.88 495.428 180.601 479.547C200.323 463.666 214.02 441.518 219.419 416.78C224.819 392.041 221.596 366.2 210.286 343.546C198.975 320.892 180.258 302.791 157.24 292.24Z"
		fill="#E6EAEE" />
	<path
		d="M111 477.288C109.427 477.288 107.847 477.244 106.26 477.156C85.0158 475.695 65.0838 466.35 50.3734 450.954C35.6629 435.558 27.2355 415.221 26.744 393.932C26.6056 377.661 31.1733 361.697 39.8973 347.962C48.6213 334.227 61.1295 323.307 75.916 316.516L91.476 309.364V46.236C91.476 41.0579 93.533 36.0919 97.1945 32.4305C100.856 28.769 105.822 26.712 111 26.712C116.178 26.712 121.144 28.769 124.806 32.4305C128.467 36.0919 130.524 41.0579 130.524 46.236V309.364L146.084 316.516C163.559 324.517 177.771 338.255 186.359 355.449C194.948 372.642 197.397 392.256 193.3 411.034C189.202 429.811 178.804 446.622 163.833 458.674C148.863 470.726 130.219 477.294 111 477.288Z"
		fill="#EB0810" />
	<path
		d="M195.252 393.02C195.248 415.366 186.371 436.797 170.572 452.6C154.774 468.404 133.346 477.288 111 477.3C109.4 477.3 107.84 477.256 106.236 477.168C85.3674 475.877 65.7375 466.823 51.208 451.788C60.9312 456.554 71.5154 459.31 82.328 459.892C83.888 459.98 85.488 460.024 87.048 460.024C103.603 460.049 119.798 455.191 133.605 446.058C147.413 436.925 158.221 423.922 164.675 408.678C171.13 393.433 172.945 376.623 169.894 360.352C166.842 344.08 159.06 329.07 147.52 317.2C161.785 324.091 173.825 334.854 182.266 348.261C190.706 361.668 195.206 377.178 195.252 393.02Z"
		fill="#EB0810" />
	<path
		d="M217.936 262.664H180.836C179.775 262.664 178.758 262.243 178.008 261.492C177.257 260.742 176.836 259.725 176.836 258.664C176.836 257.603 177.257 256.586 178.008 255.836C178.758 255.085 179.775 254.664 180.836 254.664H217.936C218.997 254.664 220.014 255.085 220.764 255.836C221.515 256.586 221.936 257.603 221.936 258.664C221.936 259.725 221.515 260.742 220.764 261.492C220.014 262.243 218.997 262.664 217.936 262.664ZM205.988 228.104H180.836C179.775 228.104 178.758 227.683 178.008 226.932C177.257 226.182 176.836 225.165 176.836 224.104C176.836 223.043 177.257 222.026 178.008 221.276C178.758 220.525 179.775 220.104 180.836 220.104H205.988C207.049 220.104 208.066 220.525 208.816 221.276C209.567 222.026 209.988 223.043 209.988 224.104C209.988 225.165 209.567 226.182 208.816 226.932C208.066 227.683 207.049 228.104 205.988 228.104ZM217.936 196.16H180.836C179.775 196.16 178.758 195.739 178.008 194.988C177.257 194.238 176.836 193.221 176.836 192.16C176.836 191.099 177.257 190.082 178.008 189.332C178.758 188.581 179.775 188.16 180.836 188.16H217.936C218.997 188.16 220.014 188.581 220.764 189.332C221.515 190.082 221.936 191.099 221.936 192.16C221.936 193.221 221.515 194.238 220.764 194.988C220.014 195.739 218.997 196.16 217.936 196.16ZM205.988 161.6H180.836C179.775 161.6 178.758 161.179 178.008 160.428C177.257 159.678 176.836 158.661 176.836 157.6C176.836 156.539 177.257 155.522 178.008 154.772C178.758 154.021 179.775 153.6 180.836 153.6H205.988C207.049 153.6 208.066 154.021 208.816 154.772C209.567 155.522 209.988 156.539 209.988 157.6C209.988 158.661 209.567 159.678 208.816 160.428C208.066 161.179 207.049 161.6 205.988 161.6ZM217.936 129.656H180.836C179.775 129.656 178.758 129.235 178.008 128.484C177.257 127.734 176.836 126.717 176.836 125.656C176.836 124.595 177.257 123.578 178.008 122.828C178.758 122.077 179.775 121.656 180.836 121.656H217.936C218.997 121.656 220.014 122.077 220.764 122.828C221.515 123.578 221.936 124.595 221.936 125.656C221.936 126.717 221.515 127.734 220.764 128.484C220.014 129.235 218.997 129.656 217.936 129.656ZM205.988 95.092H180.836C179.775 95.092 178.758 94.6706 178.008 93.9204C177.257 93.1703 176.836 92.1529 176.836 91.092C176.836 90.0311 177.257 89.0137 178.008 88.2636C178.758 87.5134 179.775 87.092 180.836 87.092H205.988C207.049 87.092 208.066 87.5134 208.816 88.2636C209.567 89.0137 209.988 90.0311 209.988 91.092C209.988 92.1529 209.567 93.1703 208.816 93.9204C208.066 94.6706 207.049 95.092 205.988 95.092ZM217.936 63.148H180.836C179.775 63.148 178.758 62.7266 178.008 61.9764C177.257 61.2263 176.836 60.2089 176.836 59.148C176.836 58.0871 177.257 57.0697 178.008 56.3196C178.758 55.5694 179.775 55.148 180.836 55.148H217.936C218.997 55.148 220.014 55.5694 220.764 56.3196C221.515 57.0697 221.936 58.0871 221.936 59.148C221.936 60.2089 221.515 61.2263 220.764 61.9764C220.014 62.7266 218.997 63.148 217.936 63.148Z"
		fill="#2F3A5A" />
</svg>